<?xml version="1.0" standalone="no"?>
<!DOCTYPE svg PUBLIC "-//W3C//DTD SVG 20010904//EN"
 "http://www.w3.org/TR/2001/REC-SVG-20010904/DTD/svg10.dtd">
<svg version="1.0" xmlns="http://www.w3.org/2000/svg"
 width="1280.000000pt" height="640.000000pt" viewBox="0 0 1280.000000 640.000000"
 preserveAspectRatio="xMidYMid meet">
<metadata>
Created by potrace 1.15, written by Peter Selinger 2001-2017
</metadata>
<g transform="translate(0.000000,640.000000) scale(0.100000,-0.100000)"
fill="#000000" stroke="none">
<path d="M7840 5401 c-431 -199 -740 -488 -928 -866 -110 -222 -186 -498 -213
-767 -6 -62 -13 -131 -15 -154 l-5 -40 -67 15 c-38 8 -120 15 -190 15 l-122 1
-6 35 c-14 83 -68 280 -100 369 -116 315 -342 658 -639 969 -240 251 -526 462
-629 462 -99 0 -269 -235 -350 -484 -51 -156 -70 -285 -70 -476 1 -236 25
-381 106 -630 87 -271 176 -413 343 -547 91 -73 271 -168 386 -203 l77 -23
-47 -35 c-64 -48 -136 -119 -177 -173 -19 -26 -34 -49 -34 -51 0 -2 30 6 68
18 37 12 85 25 107 29 l40 6 -30 -17 c-47 -26 -66 -46 -86 -89 -21 -46 -24
-130 -5 -163 12 -23 13 -22 25 20 16 54 56 108 80 108 12 0 27 -18 44 -52 44
-90 179 -232 293 -310 19 -13 34 -25 34 -28 0 -3 -37 -20 -81 -39 l-81 -34
-102 33 c-195 64 -473 197 -631 303 -183 123 -307 234 -484 431 -272 304 -362
428 -411 571 -44 127 -123 231 -209 274 -179 91 -696 56 -1256 -85 -937 -236
-1682 -603 -2352 -1158 -67 -55 -121 -105 -119 -111 6 -21 122 -17 195 8 l70
23 248 -96 c136 -53 432 -168 658 -255 226 -87 411 -160 413 -160 1 -1 -2 -15
-8 -30 -24 -63 37 -73 120 -20 30 19 65 39 76 46 20 10 96 -31 688 -367 557
-316 667 -383 675 -405 21 -61 80 -60 135 2 35 38 37 39 238 83 388 86 802
156 1153 196 215 24 562 42 642 34 l58 -6 29 -71 c23 -55 44 -86 100 -142 39
-39 87 -79 106 -87 19 -9 46 -29 60 -43 38 -42 105 -85 173 -112 34 -13 116
-51 182 -84 66 -32 124 -59 128 -59 4 0 3 9 -3 20 -13 25 -9 76 5 73 6 -1 53
-20 105 -41 152 -63 218 -77 360 -77 138 0 208 15 275 60 26 18 40 23 45 15 8
-14 115 41 204 104 86 61 220 206 248 267 20 43 24 46 28 27 5 -19 12 -22 35
-20 45 5 109 36 144 69 28 28 38 30 163 42 461 42 882 42 1153 0 171 -26 251
-52 485 -156 131 -58 242 -113 250 -124 55 -74 72 -89 107 -89 29 0 36 5 49
35 7 19 14 48 14 64 0 23 6 31 28 39 15 5 369 134 787 286 758 276 760 277
793 262 68 -33 112 -14 112 47 0 23 55 55 580 341 l580 317 49 -7 c53 -7 69 3
52 34 -14 25 -371 262 -619 411 -628 376 -1218 630 -1837 790 -347 91 -749
167 -1005 190 -106 10 -135 3 -195 -47 -76 -62 -106 -109 -145 -225 -43 -130
-67 -180 -123 -257 -58 -80 -464 -481 -587 -580 -279 -223 -580 -373 -857
-426 l-90 -17 -37 28 c-20 15 -36 30 -36 34 0 3 33 27 73 53 103 67 182 141
207 193 29 60 21 116 -26 186 l-36 51 44 -7 c23 -4 51 -12 61 -17 32 -17 30
-1 -4 41 -18 23 -30 42 -28 44 2 2 33 11 69 21 181 49 316 161 432 359 95 163
236 543 263 707 29 185 16 454 -35 680 -67 300 -235 661 -310 667 -14 1 -72
-20 -130 -46z"/>
</g>
</svg>
